<?xml version="1.0" encoding="UTF-8" standalone="no"?>
<svg
   viewBox="0 0 64 64"
   version="1.1"
   id="svg4"
   sodipodi:docname="contacts.svg"
   width="64"
   height="64"
   inkscape:version="1.1.1 (3bf5ae0d25, 2021-09-20)"
   xmlns:inkscape="http://www.inkscape.org/namespaces/inkscape"
   xmlns:sodipodi="http://sodipodi.sourceforge.net/DTD/sodipodi-0.dtd"
   xmlns="http://www.w3.org/2000/svg"
   xmlns:svg="http://www.w3.org/2000/svg">
  <defs
     id="defs8" />
  <sodipodi:namedview
     id="namedview6"
     pagecolor="#ffffff"
     bordercolor="#666666"
     borderopacity="1.0"
     inkscape:pageshadow="2"
     inkscape:pageopacity="0.0"
     inkscape:pagecheckerboard="0"
     showgrid="false"
     inkscape:zoom="5.6568542"
     inkscape:cx="33.410795"
     inkscape:cy="49.674251"
     inkscape:window-width="1920"
     inkscape:window-height="1009"
     inkscape:window-x="-8"
     inkscape:window-y="-8"
     inkscape:window-maximized="1"
     inkscape:current-layer="svg4"
     showguides="true" />

  <!-- Dont care, I asked chatgpt and i did some of them myself im trash at svgs :cry: -->
  <!-- Outer circle -->
  <path
     d="M 2,32 C 2,10.4 10.4,2 32,2 53.6,2 62,10.4 62,32 62,53.6 53.6,62 32,62 10.4,62 2,53.6 2,32"
     id="path2"
     style="stroke-width:0.3;fill:#00979D;fill-opacity:1" />
  
  <!-- Arduino logo (scaled and centered more) -->
  <g transform="translate(11, 11) scale(3.0)">
    <path fill="#ffffff" d="m 3.6502072,9.82213 c -0.7184,-0.061 -1.3942,-0.3807 -1.8898,-0.8952 -0.3682,-0.3824 -0.6155,-0.8498 -0.7298,-1.3797 -0.026,-0.1208 -0.026,-0.1258 -0.03,-0.5144 0,-0.3866 0,-0.3943 0.021,-0.5209 0.1704,-0.9237 0.7868,-1.6972 1.6621,-2.0858 0.5822,-0.2585 1.2332,-0.3235 1.9128,-0.191 0.8873,0.173 1.6308,0.7151 2.3059,1.6814 0.044,0.063 0.082,0.1143 0.086,0.1146 0,2e-4 0.044,-0.053 0.09,-0.1193 0.6173,-0.8761 1.2583,-1.3834 2.035,-1.6109 0.3111,-0.091 0.6,-0.1304 0.9562998,-0.1304 0.212,0 0.3231,0.01 0.5115,0.041 0.9744,0.1642 1.8047,0.8048 2.1898,1.6893 0.2938,0.6747 0.3045,1.4418 0.03,2.1255 -0.2979,0.7417 -0.9057,1.3274 -1.6801,1.6193 -0.1952,0.074 -0.4404,0.1332 -0.6804,0.1656 -0.104,0.014 -0.1899,0.017 -0.4786998,0.017 -0.3133,-2e-4 -0.3658,0 -0.4787,-0.02 -0.4547,-0.072 -0.8144,-0.2097 -1.1731,-0.4487 -0.4251,-0.2833 -0.7966,-0.6813 -1.2199,-1.3069 -0.053,-0.079 -0.099,-0.143 -0.1025,-0.1428 0,3e-4 -0.054,0.073 -0.1136,0.1614 -0.1312,0.1958 -0.2919,0.4115 -0.4281,0.575 -0.1192,0.143 -0.3771,0.4046 -0.4933,0.5005 -0.477,0.3932 -0.9761,0.6092 -1.5536,0.6722 -0.1457,0.016 -0.5804,0.018 -0.7489,0 z m 0.6664,-0.995 c 0.6559,-0.074 1.1648,-0.4629 1.7497,-1.3362 0.066,-0.098 0.169,-0.2573 0.2295,-0.3538 l 0.1101,-0.1754 -0.096,-0.1484 c -0.2846,-0.4379 -0.4848,-0.6963 -0.7301,-0.9423 -0.4165,-0.4177 -0.8233,-0.6225 -1.3802,-0.6948 -0.1358,-0.018 -0.452,-0.015 -0.5819,0 -0.8151,0.1235 -1.4484,0.6995 -1.6107,1.4649 -0.03,0.1405 -0.041,0.4279 -0.023,0.5752 0.037,0.2946 0.1616,0.5998 0.3463,0.8473 0.067,0.089 0.2291,0.2574 0.3203,0.3312 0.2038,0.165 0.4666,0.3 0.7158,0.3676 0.2574,0.07 0.6467,0.095 0.9501,0.06 z m -1.3374,-1.9087 0,-0.2112 0.9995,0 0.9996,0 0,0.2112 0,0.2112 -0.9996,0 -0.9995,0 z m 7.2320998,1.9143 c 0.4921,-0.025 1.0055,-0.2709 1.329,-0.6373 0.1235,-0.1399 0.1964,-0.247 0.2752,-0.4042 0.1561,-0.3115 0.2164,-0.6297 0.1826,-0.9633 -0.085,-0.8409 -0.7497,-1.5109 -1.6326,-1.6467 -0.078,-0.012 -0.1632,-0.017 -0.305,-0.016 -0.8406998,3e-4 -1.4512998,0.3503 -2.0772998,1.1906 -0.1104,0.1481 -0.4052,0.588 -0.4052,0.6045 0,0.03 0.3882,0.6236 0.5443,0.8315 0.4694,0.6252 0.8976,0.9279 1.4475,1.0233 0.1658,0.029 0.3336,0.034 0.6414998,0.018 z m -0.5684998,-1.3653 0,-0.2721 -0.2675,0 -0.2674,0 0,-0.2769 0,-0.2769 0.2674,0 0.2675,0 0,-0.2722 0,-0.2721 0.2816,0 0.2814998,0 0,0.2721 0,0.2722 0.2722,0 0.2722,0 0,0.2769 0,0.2769 -0.2722,0 -0.2722,0 0,0.2721 0,0.2722 -0.2814998,0 -0.2816,0 z m 2.7217998,-2.9235 0,-0.1173 -0.042,0 c -0.039,0 -0.042,0 -0.042,-0.024 l 0,-0.024 " />
  </g>
</svg>
